<?xml version="1.0" encoding="UTF-8" standalone="no"?>
<!-- Created with Inkscape (http://www.inkscape.org/) -->

<svg
   xmlns:dc="http://purl.org/dc/elements/1.1/"
   xmlns:cc="http://creativecommons.org/ns#"
   xmlns:rdf="http://www.w3.org/1999/02/22-rdf-syntax-ns#"
   xmlns:svg="http://www.w3.org/2000/svg"
   xmlns="http://www.w3.org/2000/svg"
   xmlns:xlink="http://www.w3.org/1999/xlink"
   xmlns:sodipodi="http://sodipodi.sourceforge.net/DTD/sodipodi-0.dtd"
   xmlns:inkscape="http://www.inkscape.org/namespaces/inkscape"
   width="113.64677mm"
   height="59.235077mm"
   viewBox="0 0 113.64678 59.235075"
   version="1.1"
   id="svg1386"
   sodipodi:docname="church-tree.svg"
   inkscape:version="0.92.4 (5da689c313, 2019-01-14)">
  <defs
     id="defs1380">
    <linearGradient
       inkscape:collect="always"
       xlink:href="#linear-gradient"
       id="linearGradient1088"
       gradientUnits="userSpaceOnUse"
       gradientTransform="matrix(1,0,0,-1,0,517.99)"
       x1="287.17001"
       y1="289.57001"
       x2="181.59"
       y2="252.97" />
    <linearGradient
       gradientUnits="userSpaceOnUse"
       gradientTransform="matrix(1,0,0,-1,0,517.99)"
       y2="252.97"
       x2="181.59"
       y1="289.57001"
       x1="287.17001"
       id="linear-gradient">
      <stop
         id="stop777"
         stop-opacity="0"
         offset="0" />
      <stop
         id="stop779"
         stop-opacity="0.8"
         offset="0.91" />
      <stop
         id="stop781"
         offset="1" />
    </linearGradient>
    <linearGradient
       xlink:href="#linear-gradient"
       y2="237.74001"
       x2="553.17999"
       y1="267.57999"
       x1="505.87"
       id="linear-gradient-2" />
    <linearGradient
       inkscape:collect="always"
       xlink:href="#linear-gradient-3"
       id="linearGradient1090"
       gradientUnits="userSpaceOnUse"
       gradientTransform="translate(-1.45,-304.94)"
       x1="486.85999"
       y1="470.04001"
       x2="508.25"
       y2="470.04001" />
    <linearGradient
       gradientUnits="userSpaceOnUse"
       gradientTransform="translate(-1.45,-304.94)"
       y2="470.04001"
       x2="508.25"
       y1="470.04001"
       x1="486.85999"
       id="linear-gradient-3">
      <stop
         id="stop785"
         stop-color="#ecc4d7"
         offset="0" />
      <stop
         id="stop787"
         stop-color="#efd4d1"
         offset="0.42" />
      <stop
         id="stop789"
         stop-color="#f2eac9"
         offset="1" />
    </linearGradient>
    <linearGradient
       xlink:href="#linear-gradient-3"
       y2="517.83002"
       x2="462.10999"
       y1="455.09"
       x1="499.82001"
       id="linear-gradient-4" />
    <linearGradient
       xlink:href="#linear-gradient-3"
       y2="440.42001"
       x2="512.90997"
       y1="440.42001"
       x1="467.60999"
       id="linear-gradient-5" />
    <linearGradient
       xlink:href="#linear-gradient-3"
       y2="576.08002"
       x2="409.95001"
       y1="585.25"
       x1="386.42001"
       id="linear-gradient-6" />
    <linearGradient
       xlink:href="#linear-gradient"
       y2="322.41"
       x2="333.76001"
       y1="221.62"
       x1="292.09"
       id="linear-gradient-7" />
    <linearGradient
       xlink:href="#linear-gradient-3"
       gradientTransform="translate(0,-307.34)"
       y2="443.09"
       x2="327.76999"
       y1="439.23999"
       x1="315.38"
       id="linear-gradient-8" />
    <linearGradient
       xlink:href="#linear-gradient-3"
       y2="624.14001"
       x2="391.07001"
       y1="568.66998"
       x1="414.59"
       id="linear-gradient-9" />
    <linearGradient
       xlink:href="#linear-gradient-3"
       y2="603.60999"
       x2="398.44"
       y1="583.91998"
       x1="403.85999"
       id="linear-gradient-10" />
    <linearGradient
       xlink:href="#linear-gradient-3"
       y2="616.03003"
       x2="541.90997"
       y1="616.03003"
       x1="513.67999"
       id="linear-gradient-11" />
    <linearGradient
       xlink:href="#linear-gradient"
       gradientTransform="matrix(1,0,0,-1,0,518)"
       y2="94.449997"
       x2="497.69"
       y1="354.32999"
       x1="499.09"
       id="linear-gradient-12" />
    <linearGradient
       xlink:href="#linear-gradient"
       y2="94.540001"
       x2="479.94"
       y1="354.42001"
       x1="481.34"
       id="linear-gradient-13" />
    <linearGradient
       gradientUnits="userSpaceOnUse"
       gradientTransform="matrix(1,0,0,-1,0,518)"
       y2="323.47"
       x2="295.81"
       y1="366.07999"
       x1="300.51001"
       id="linear-gradient-14">
      <stop
         id="stop802"
         stop-opacity="0"
         offset="0" />
      <stop
         id="stop804"
         stop-opacity="0.35"
         offset="0.44" />
      <stop
         id="stop806"
         stop-opacity="0.8"
         offset="0.91" />
      <stop
         id="stop808"
         offset="1" />
    </linearGradient>
    <linearGradient
       xlink:href="#linear-gradient"
       y2="280.48999"
       x2="143.67999"
       y1="286.48999"
       x1="124.35"
       id="linear-gradient-15" />
    <linearGradient
       xlink:href="#linear-gradient"
       y2="283.42999"
       x2="132.12"
       y1="283.62"
       x1="144.69"
       id="linear-gradient-16" />
    <linearGradient
       gradientUnits="userSpaceOnUse"
       y2="315.25"
       x2="85.040001"
       y1="266.54001"
       x1="152.34"
       id="linear-gradient-17">
      <stop
         id="stop813"
         stop-opacity="0"
         stop-color="#fff"
         offset="0" />
      <stop
         id="stop815"
         stop-color="#3f3d56"
         offset="1" />
    </linearGradient>
    <linearGradient
       xlink:href="#linear-gradient"
       y2="313.59"
       x2="30.83"
       y1="146.34"
       x1="110.8"
       id="linear-gradient-18" />
    <linearGradient
       gradientUnits="userSpaceOnUse"
       gradientTransform="translate(0,-252.01)"
       y2="795.33002"
       x2="381.92001"
       y1="593.79999"
       x1="-121.91"
       id="linear-gradient-19">
      <stop
         id="stop819"
         stop-color="#00272e"
         offset="0.17" />
      <stop
         id="stop821"
         stop-opacity="0"
         stop-color="#69b9eb"
         offset="1" />
    </linearGradient>
    <linearGradient
       gradientUnits="userSpaceOnUse"
       gradientTransform="translate(0,-307.34)"
       y2="603.46002"
       x2="266.53"
       y1="603.46002"
       x1="266.13"
       id="linear-gradient-20">
      <stop
         id="stop824"
         stop-color="#68e1fd"
         offset="0" />
      <stop
         id="stop826"
         stop-color="#69b9eb"
         offset="1" />
    </linearGradient>
    <linearGradient
       xlink:href="#linear-gradient"
       gradientTransform="translate(0,-307.34)"
       y2="806.01001"
       x2="247.71001"
       y1="788.02002"
       x1="288.45999"
       id="linear-gradient-21" />
    <linearGradient
       xlink:href="#linear-gradient"
       gradientTransform="translate(0,-307.34)"
       y2="811.07001"
       x2="317.48999"
       y1="787.21002"
       x1="353.10001"
       id="linear-gradient-22" />
    <linearGradient
       xlink:href="#linear-gradient"
       gradientTransform="translate(0,-307.34)"
       y2="803.69"
       x2="546.89001"
       y1="782.03003"
       x1="518.26001"
       id="linear-gradient-23" />
    <linearGradient
       xlink:href="#linear-gradient"
       gradientTransform="translate(0,-307.34)"
       y2="808.95001"
       x2="486.31"
       y1="780.67999"
       x1="430.51001"
       id="linear-gradient-24" />
    <style
       id="style262">.a{fill:none;}.b{fill:#84d0ab;}.c{fill:#fcaa2a;}.d{fill:#ff9052;}.e{fill:#de9e55;}.f{fill:#fff;}.g{fill:#fcafb7;}.h{fill:#fee253;}.i{fill:#e9686d;}</style>
  </defs>
  <sodipodi:namedview
     id="base"
     pagecolor="#ffffff"
     bordercolor="#666666"
     borderopacity="1.0"
     inkscape:pageopacity="0.0"
     inkscape:pageshadow="2"
     inkscape:zoom="0.35"
     inkscape:cx="-120.92663"
     inkscape:cy="437.39866"
     inkscape:document-units="mm"
     inkscape:current-layer="g487"
     showgrid="false"
     inkscape:window-width="1920"
     inkscape:window-height="1001"
     inkscape:window-x="-9"
     inkscape:window-y="-9"
     inkscape:window-maximized="1" />
  <metadata
     id="metadata1383">
    <rdf:RDF>
      <cc:Work
         rdf:about="">
        <dc:format>image/svg+xml</dc:format>
        <dc:type
           rdf:resource="http://purl.org/dc/dcmitype/StillImage" />
        <dc:title></dc:title>
      </cc:Work>
    </rdf:RDF>
  </metadata>
  <g
     inkscape:label="Layer 1"
     inkscape:groupmode="layer"
     id="layer1"
     transform="translate(-40.688624,-144.85047)">
    <g
       id="g487"
       transform="matrix(0.19745025,0,0,0.19745025,10.763972,130.39655)">
      <g
         id="g16">
        <title
           id="title10">background</title>
        <rect
           x="-1"
           y="-1"
           width="582"
           height="402"
           id="canvas_background"
           style="fill:#ffffff" />
        <g
           id="canvasGrid"
           width="100%"
           height="100%"
           x="0"
           y="0"
           overflow="visible"
           display="none"
           style="display:none;overflow:visible">
          <rect
             id="rect13"
             width="100%"
             height="100%"
             x="0"
             y="0"
             style="fill:url(#gridpattern);stroke-width:0" />
        </g>
      </g>
      <g
         id="g245">
        <title
           id="title18">Layer 1</title>
        <defs
           id="defs22">
          <style
             id="style1637">.a{fill:none;}.b{fill:#84d0ab;}.c{fill:#fcaa2a;}.d{fill:#ff9052;}.e{fill:#de9e55;}.f{fill:#fff;}.g{fill:#fcafb7;}.h{fill:#fee253;}.i{fill:#e9686d;}</style>
        </defs>
        <g
           id="g1086"
           transform="matrix(0.69863651,0,0,0.69863651,151.5554,12.559699)">
          <path
             id="path837"
             style="opacity:0.18000004;isolation:isolate;fill:#68e1fd;stroke-width:0.7627641"
             d="m 823.65016,428.61425 a 116.83002,67.972742 0 0 1 -12,26.7283 c -11.58,13.38161 -29.60001,24.3138 -50.93001,32.76749 a 205.68004,119.66647 0 0 1 -37.92001,11.76999 230.24004,133.9557 0 0 1 -22.4,4.56138 c -46.00001,7.83115 -94.54002,8.21515 -142.42003,8.54096 l -336.98007,2.28069 v 0 l -44.32001,0.29672 c -14.1,0.0989 -28.47,0.15709 -42.69,-0.29672 -27.13001,-0.84944 -53.760015,-3.54322 -77.110019,-11.29873 A 102.67002,59.734327 0 0 1 26.000005,488.11004 C 10.170002,475.95605 1.6100001,460.45666 1.2,445.00963 v -1.62325 c 0.17,-15.07467 8.1700016,-29.93989 24.800005,-41.54698 1.06,-0.73308 2.14,-1.46034 3.27,-2.16433 2.350001,-1.47779 4.920001,-2.90904 7.620002,-4.34029 17.190003,-9.02386 39.890008,-17.111 50.18001,-28.73555 18.100003,-20.4564 -4.470001,-28.80536 -7.440002,-48.87195 -5.000001,-33.74492 53.720015,-72.52249 101.420025,-88.00443 51.29001,-16.68628 115.89002,-18.6877 169.95003,-5.30027 57.20001,14.17286 110.58002,45.03783 170.92003,36.33397 19.40001,-2.79851 37.22001,-9.68712 57.21001,-9.89076 36.94001,-0.41308 62.58001,21.44548 74.08002,41.89025 11.5,20.44477 17.74,43.51931 45.08001,57.9889 19.62,10.37947 46.67,14.28341 70.43001,21.17784 a 115.78002,67.361842 0 0 1 20.39,7.35989 c 14.00001,6.43481 23.62001,15.16776 29.16001,24.87233 a 114.34002,66.524037 0 0 1 5.38,24.45925 z"
             inkscape:connector-curvature="0" />
          <path
             id="path839"
             style="opacity:0.18000004;isolation:isolate;fill:#68e1fd"
             d="m 760.93,468.66 a 215,215 0 0 1 -60.32,28.06 c -43,12.59 -88.21,14 -133,14.56 l -9.39,0.12 -123.72,1.45 -62.84,0.74 -139.87,1.63 -10.61,0.12 v 0 l -44.33,0.52 c -14.1,0.17 -28.46,0.26 -42.69,-0.52 C 107,513.92 80.37,509.29 57,496 A 102.58,102.58 0 0 1 26.26,468.7 Z"
             inkscape:connector-curvature="0" />
          <path
             id="path841"
             style="opacity:0.05;isolation:isolate;fill:#000405"
             d="m 624.57,491.12 c 0.29,4.17 -2.67,8.2 -1.83,12.29 1.24,6 8.09,5 14.23,4.55 14.92,-1.22 34,-3.5 48.53,-7.25 13.45,-3.48 23.24,-6.84 36.06,-11 1,-0.33 0.69,-3.17 0.74,-4.22 0.08,-1.39 -1.76,-1.91 -3.15,-2 -12.68,-0.41 -25.5,0 -37.94,-2.5 -5.59,-1.14 -11.07,-2.88 -16.74,-3.53 -7,-0.79 -14,0.07 -21,-0.46 -5.07,-0.39 -17.42,-5.94 -22.13,-3.66 -7.06,3.49 2.88,12.74 3.23,17.78 z"
             inkscape:connector-curvature="0" />
          <path
             id="path843"
             style="opacity:0.05;isolation:isolate;fill:#000405"
             d="m 330.78,494.88 c 14.65,4.11 26.5,12.81 39.4,19.55 q -69.94,0.8 -139.87,1.62 a 63.89,63.89 0 0 1 13,-9.58 c 15.33,-8.58 33.34,-10.56 50.8,-12.38 12.2,-1.28 24.81,-2.53 36.67,0.79 z"
             inkscape:connector-curvature="0" />
          <path
             id="path845"
             style="opacity:0.05;isolation:isolate;fill:#000405"
             d="m 568.57,507.2 a 7.39,7.39 0 0 1 -1.66,3.62 6.59,6.59 0 0 0 -0.78,1.3 l -9.39,0.12 -123.74,1.42 a 36.68,36.68 0 0 0 6.06,-5.95 c 2.58,-3.2 4.64,-6.83 7.64,-9.61 8.86,-8.22 22.89,-6.69 34.37,-3 3.49,1.14 7,2.44 10.68,2.39 6.52,-0.08 12.12,-4.32 18,-7.24 18.47,-9.22 42.92,-4.28 56.36,11.39 1.32,1.62 2.63,3.5 2.46,5.56 z"
             inkscape:connector-curvature="0" />
          <path
             id="path847"
             d="m 502.57,367 -22.87,112.51 -15.37,-1.76 -1.77,-0.21 c 0,0 4.4,-33.34 6.3,-80.89 1.25,-31.5 6.64,-57.22 9.22,-78.6 a 97.33,97.33 0 0 1 4,-17.34 c 3.12,-9.46 7.87,-18.31 13.91,-17.4 13.34,2 30.91,13.53 33.23,20.75 4.04,12.6 -26.65,62.94 -26.65,62.94 z"
             inkscape:connector-curvature="0"
             style="fill:#25233a" />
          <path
             id="path849"
             style="opacity:0.23999999;isolation:isolate;fill:#ffffff"
             d="m 486.58,301 c 0,0 -10.25,79.41 -10.58,104.18 -0.33,24.77 -10.52,72.36 -10.52,72.36 l -1.18,0.21 -1.77,-0.21 c 0,0 4.4,-33.34 6.3,-80.89 1.25,-31.5 6.64,-57.22 9.22,-78.6 a 97.33,97.33 0 0 1 4,-17.34 19.62,19.62 0 0 1 4.53,0.29 z"
             inkscape:connector-curvature="0" />
          <path
             id="path851"
             d="m 555,479.33 h -17 v -0.1 c -0.46,-2.29 -9,-44.59 -21.07,-75.23 -9,-22.85 -13.35,-69.39 -15,-93.21 -0.66,-9 -0.92,-14.76 -0.92,-14.76 0,0 34.52,-10.19 39,-5.67 4.48,4.52 9.57,25 9.57,25 0,0 -11.82,81.1 -4.3,86.6 7.52,5.5 9.72,77.37 9.72,77.37 z"
             inkscape:connector-curvature="0"
             style="fill:#3f3d56" />
          <path
             id="path853"
             d="m 286,155.19 c 0,0 -25.14,7.75 -35.32,80.31 -3.68,26.16 19.72,72.37 19.72,72.37 z"
             inkscape:connector-curvature="0"
             style="fill:#68e1fd" />
          <path
             id="path855"
             d="m 286,155.19 c 0,0 -25.14,7.75 -35.32,80.31 -3.68,26.16 19.72,72.37 19.72,72.37 z"
             inkscape:connector-curvature="0"
             style="fill:url(#linearGradient1088)" />
          <path
             id="path857"
             d="m 267.64,298.81 a 9.83,9.83 0 0 0 -11.28,11.32 c 1.92,11.34 5.58,27.08 12,36 10.84,14.93 25.64,35.53 25.64,35.53 l 15.3,105 18.87,-2.55 L 328,383.49 306.7,305.26 Z"
             inkscape:connector-curvature="0"
             style="fill:#25233a" />
          <path
             id="path859"
             d="m 306.65,305.26 -2.45,87.4 -40.45,94.07 -13.55,-5.73 -3.94,-1.69 22.4,-88.2 c 0,0 -8.72,-24 -15.14,-41.5 -6.16,-16.79 2.22,-50.06 2.92,-52.74 v -0.18 z"
             inkscape:connector-curvature="0"
             style="fill:#3f3d56" />
          <path
             id="path861"
             d="m 474.15,249.36 -49.91,24.74 -9.32,-11.87 v 0 l -2.39,-3.06 42.64,-23.17 c 0,0 14.65,-32.57 17.83,-47.54 0.61,-2.78 1.22,-5 1.79,-6.91 1.11,-3.47 11.7,-15.73 15.26,-16.46 3.56,-0.73 -0.45,10.21 1.92,13 a 22,22 0 0 1 3.8,13 c 0.41,9.3 -21.62,58.27 -21.62,58.27 z"
             inkscape:connector-curvature="0"
             style="fill:#68e1fd" />
          <path
             id="path863"
             d="m 540,278.33 c 0,0 -24.79,29.79 -53.37,22.7 a 39,39 0 0 1 -5.76,-1.94 10,10 0 0 1 -5.24,-13.1 v -0.06 c 2.76,-6.26 2.84,-15.31 2.59,-23.66 -0.58,-19.21 -5.44,-40 -5.8,-48.65 -0.24,-5.53 0.65,-13.36 2.28,-21.18 2.87,-13.9 8,-27.75 13.31,-28.55 15.64,-2.41 21,1.85 21,1.85 l 26.7,15.51 c 13.29,13.86 6.83,35.62 4.29,97.08 z"
             inkscape:connector-curvature="0"
             style="fill:#68e1fd" />
          <polygon
             id="polygon865"
             points="512.81,192.34 500.81,199.87 507.64,210.87 488.73,230 484.84,233.94 505.39,164.29 505.47,157.32 508.08,159.99 508.08,160 511.5,163.5 "
             style="fill:#68e1fd" />
          <path
             id="path867"
             d="m 537.46,216.3 -2.9,75.09 c 0,0 -40.8,19.39 -46.19,-2.4 -4.17,-16.84 6.5,-36.05 6.5,-36.05 z"
             inkscape:connector-curvature="0"
             style="fill:url(#linear-gradient-2)" />
          <polygon
             id="polygon869"
             points="485.01,307.35 560.83,322.91 571.73,274.57 497.28,257.94 "
             style="fill:#ffffff" />
          <path
             id="path871"
             d="m 506,146.3 c 0,0.22 -0.27,11.41 -0.66,18.53 -0.28,5.51 -2.86,9.39 -6.8,13.23 a 24.33,24.33 0 0 1 -8.09,5.58 4.29,4.29 0 0 1 -5.5,-2.53 v 0 a 4.36,4.36 0 0 1 -0.11,-2.6 c 0.39,-1.48 0.78,-3.2 1.08,-5 0.64,-3.71 0.92,-7.73 -0.09,-10.57 a 2.81,2.81 0 0 0 -0.1,-0.31 c -0.6,-1.47 0,-3.07 1.36,-4.68 1.91,-2.27 5.25,-4.57 8.58,-6.51 A 101.26,101.26 0 0 1 506,146.3 Z"
             inkscape:connector-curvature="0"
             style="fill:url(#linearGradient1090)" />
          <path
             id="path873"
             d="m 488.1,172.75 a 9.25,9.25 0 0 1 -2.16,0.76 c 0.64,-3.71 0.92,-7.73 -0.09,-10.57 l 1.26,-5 0.95,-3.72 7.63,-2.79 7.73,-2.82 c -1.86,13.76 -9.22,21.25 -15.32,24.14 z"
             inkscape:connector-curvature="0"
             style="fill:url(#linear-gradient-4)" />
          <path
             id="path875"
             d="m 486,107.2 a 22,22 0 0 0 -20.61,23.31 v 0 a 12.1,12.1 0 0 0 0.17,1.69 74.3,74.3 0 0 0 6.82,25.8 c 7.19,12.2 25.25,2.1 28.1,-2.94 2.85,-5.04 13.6,-27.84 9.06,-34.31 -3,-4.5 -11.82,-14.09 -23.54,-13.55 z"
             inkscape:connector-curvature="0"
             style="fill:url(#linear-gradient-5)" />
          <path
             id="path877"
             d="m 466.88,98.6 3.72,1.9 a 14,14 0 0 0 -11.47,5.58 18.33,18.33 0 0 0 -5.35,12.83 l 6.31,-3 c 0,0 -0.47,7.79 11.49,8.36 11.96,0.57 24.62,1 24.62,1 l -4.06,-5.61 c 0,0 7.44,3 8.74,5.71 a 90,90 0 0 1 2.56,13.42 c 0,0 2.95,-7.69 4.18,-6 1.23,1.69 -1.28,8.65 -2.83,10.18 -1.55,1.53 -1.29,6.11 -1.43,6.49 -0.14,0.38 7.41,-5.91 7.74,-8.07 0.33,-2.16 7.81,-24 2.9,-28.56 l 3,-0.23 a 14,14 0 0 0 -5.87,-2.26 c 0,0 -19.7,-25.68 -44.25,-11.74 z"
             inkscape:connector-curvature="0"
             style="fill:#3f3d56" />
          <path
             id="path879"
             d="m 389.14,269.41 a 58.67,58.67 0 0 1 10.67,-7.41 35.16,35.16 0 0 1 9.29,-1.92 c 0,0 0.52,4.37 -2,4.66 -2.52,0.29 -4.62,4.12 -4.62,4.12 0,0 16.17,6.62 18.4,6 2.23,-0.62 1.79,2.6 -2.3,2.39 -4.09,-0.21 -5.09,5.51 -7.92,5.43 -2.83,-0.08 -7.31,1.67 -11.47,1.82 a 43.18,43.18 0 0 1 -12.26,-2.86 z"
             inkscape:connector-curvature="0"
             style="fill:url(#linear-gradient-6)" />
          <path
             id="path881"
             d="M 326.56,223 313,299.22 c 0,0 -4.68,14.59 -28.9,12.41 A 38.78,38.78 0 0 1 260.49,301 v 0 l -0.39,-0.37 -0.27,-0.28 a 47.06,47.06 0 0 1 -10.67,-16.16 c 0,0 15.56,-107.53 31.9,-126.19 1.63,-1.86 3.26,-2.85 4.9,-2.76 a 28.9,28.9 0 0 1 12.48,4.76 61.14,61.14 0 0 1 28.12,63 z"
             inkscape:connector-curvature="0"
             style="fill:#68e1fd" />
          <path
             id="path883"
             d="m 301.07,220.45 -17,91.17 c 0,0 26.05,3.58 28.9,-12.4 l 8,-46.37 z"
             inkscape:connector-curvature="0"
             style="fill:url(#linear-gradient-7)" />
          <path
             id="path885"
             d="m 286,155.19 c 0,0 2.59,-19.61 3.63,-32.36 1.04,-12.75 5.2,-29.83 26.6,-27.64 21.4,2.19 21.47,34.54 15.56,48.08 -5.91,13.54 -13.79,13.15 -13.79,13.15 0,0 -10.66,-2.32 -10.26,10.5 z"
             inkscape:connector-curvature="0"
             style="fill:url(#linear-gradient-8)" />
          <path
             id="path887"
             d="m 293.9,92.48 a 24,24 0 0 0 -6.51,10.94 57.54,57.54 0 0 0 -1.94,10.33 l 2.18,-2.39 a 159.79,159.79 0 0 1 -1.33,17.89 97.18,97.18 0 0 0 -1,16.7 l 4,-0.2 5,6.14 5.52,-3.74 4.18,-2.15 3.7,-9.14 a 5.14,5.14 0 0 1 -1.8,-6 c 1.36,-3.73 4.74,-4.59 5.53,-2.39 a 43.3,43.3 0 0 1 1,8.34 l 5.9,-16.71 c 0,0 3.7,-5.19 6.94,-1.62 a 17.29,17.29 0 0 0 7.14,4.76 l -2,-5.52 5.35,1.37 -0.42,-6.38 4,2.79 c 0,0 1.75,-10.33 -1.64,-14.91 -3.39,-4.58 -16.87,-22.93 -43.8,-8.11 z"
             inkscape:connector-curvature="0"
             style="fill:#3f3d56" />
          <path
             id="path889"
             d="m 389.59,267.34 -2.71,14.32 -0.73,3.85 -48.81,-3.64 c -13.51,-1.16 -26.77,-10.4 -28.45,-23.91 L 292,198.33 a 15.14,15.14 0 0 1 16.66,-19.48 17.39,17.39 0 0 1 14,11.93 l 10.63,53.37 a 16.65,16.65 0 0 0 12.53,13 z"
             inkscape:connector-curvature="0"
             style="fill:#68e1fd" />
          <path
             id="path891"
             d="m 414.92,262.22 -6.8,2.12 c 0,0 -8.5,0.76 -11.33,3.18 -2.83,2.42 -1.25,3.51 -1.25,3.51 0,0 9,-1.32 10.94,-0.57 1.94,0.75 11.43,4.52 14.43,4.47 3,-0.05 3.33,-0.83 3.33,-0.83 z"
             inkscape:connector-curvature="0"
             style="fill:url(#linear-gradient-9)" />
          <path
             id="path893"
             d="m 394.41,280 a 4.3,4.3 0 0 1 3.73,-1 0.73,0.73 0 0 1 0.39,0.2 0.85,0.85 0 0 1 0,0.79 13.45,13.45 0 0 1 -2.12,4.23 c 1.06,-0.36 1.55,-1.54 2.22,-2.43 a 5.6,5.6 0 0 1 4.3,-2.22 1,1 0 0 1 0.58,0.12 c 0.41,0.28 0.23,0.92 0,1.37 -0.42,0.84 -0.83,1.69 -1.25,2.54 a 25.24,25.24 0 0 1 3.66,-4.2 2.75,2.75 0 0 1 1.2,-0.75 1,1 0 0 1 1.2,0.53 1.28,1.28 0 0 1 0,0.82 9.26,9.26 0 0 1 -1.5,3.21 15.51,15.51 0 0 1 3.14,-3.71 0.83,0.83 0 0 1 0.72,-0.29 0.61,0.61 0 0 1 0.35,0.3 c 0.42,0.7 0,1.59 -0.44,2.29 -0.81,1.29 -1.84,2.67 -3.35,2.9 a 4.2,4.2 0 0 0 -1,0.18 3.49,3.49 0 0 0 -0.65,0.43 3.24,3.24 0 0 1 -3.55,0.08 4.42,4.42 0 0 1 -4.86,-0.08 1,1 0 0 0 -1.2,-0.09 3.32,3.32 0 0 1 -3.68,-1.09 c -0.9,-1.28 1.12,-3.27 2.11,-4.13 z"
             inkscape:connector-curvature="0"
             style="fill:url(#linear-gradient-10)" />
          <path
             id="path895"
             d="m 540.94,304.89 -16.7,-5.77 -0.57,-0.2 12.17,-39.12 c 0,0 -16,-44 -18.66,-57.47 a 37.74,37.74 0 0 1 -0.12,-13.57 11.73,11.73 0 0 1 9.2,-9.55 11.36,11.36 0 0 1 7.66,1 50.33,50.33 0 0 1 6,3.66 8,8 0 0 1 3.07,4.58 c 3,12.32 15.07,62.58 15.52,67.35 0.49,5.47 -17.57,49.09 -17.57,49.09 z"
             inkscape:connector-curvature="0"
             style="fill:#68e1fd" />
          <path
             id="path897"
             d="m 519.31,302.44 c -0.82,0.78 -1.6,2.18 -0.73,2.92 0.21,0.18 0.5,0.28 0.67,0.5 0.42,0.53 -0.1,1.27 -0.58,1.74 l -4,3.89 c -1.48,1.43 -3.09,3.22 -2.75,5.25 a 4.13,4.13 0 0 0 2.9,3.05 8.31,8.31 0 0 0 4.37,-0.05 2.15,2.15 0 0 0 1.19,2.05 6.49,6.49 0 0 0 2.44,0.6 18.2,18.2 0 0 0 7.35,-0.2 c 0.18,0.27 0.36,0.53 0.55,0.79 3.16,-0.56 4.88,-3.94 6,-6.94 1.12,-3 2.26,-6.34 3.22,-9.57 a 2.15,2.15 0 0 0 0.09,-1.37 2.2,2.2 0 0 0 -1.42,-1.07 c -3.82,-1.45 -7.63,-2.93 -11.46,-4.36 -3.54,-1.32 -5.15,0.26 -7.84,2.77 z"
             inkscape:connector-curvature="0"
             style="fill:url(#linear-gradient-11)" />
          <polygon
             id="polygon899"
             points="512.81,192.34 500.81,199.87 507.64,210.87 488.73,230 484.84,233.94 505.39,164.29 505.47,157.32 508.08,159.99 508.08,160 511.5,163.5 "
             style="fill:#68e1fd" />
          <path
             id="path901"
             d="m 485.94,173.51 -2.55,12 1.45,48.42 18.63,-63.13 -8,5.06 c -0.43,0.27 -0.87,0.52 -1.33,0.75 a 5.92,5.92 0 0 1 -7.95,-2.63 v 0 c -0.08,-0.16 -0.15,-0.32 -0.22,-0.49 z"
             inkscape:connector-curvature="0"
             style="fill:#ffffff" />
          <path
             id="path903"
             d="m 486.06,163.84 -8.31,15.57 2.76,6.5 -4.51,9.75 8.81,38.27 c 0,0 -2.41,-46.78 1.1,-60.44 0.03,0.02 1.19,-6.49 0.15,-9.65 z"
             inkscape:connector-curvature="0"
             style="fill:#68e1fd" />
          <polygon
             id="polygon905"
             points="512.81,192.34 500.81,199.87 507.64,210.87 488.73,230 484.84,233.94 505.39,164.29 505.47,157.32 508.08,159.99 508.08,160 511.5,163.5 "
             style="fill:url(#linear-gradient-12)" />
          <path
             id="path907"
             d="m 486.06,163.84 -8.31,15.57 2.76,6.5 -4.51,9.75 8.81,38.27 c 0,0 -2.41,-46.78 1.1,-60.44 0.03,0.02 1.19,-6.49 0.15,-9.65 z"
             inkscape:connector-curvature="0"
             style="fill:url(#linear-gradient-13)" />
          <polygon
             id="polygon909"
             points="309.87,164.12 316.51,176.99 281.08,157.93 285.32,151.91 "
             style="fill:#68e1fd" />
          <polygon
             id="polygon911"
             points="309.87,164.12 316.51,176.99 281.08,157.93 285.32,151.91 "
             style="fill:url(#linear-gradient-14)" />
          <path
             id="path913"
             d="m 219.7,321.21 v 195 H 198.23 V 427.75 H 4.57 A 130.78,130.78 0 0 1 0,395.42 v -2.76 c 0.17,-25.9 8.16,-51.52 24.81,-71.41 z"
             inkscape:connector-curvature="0"
             style="fill:#68e1fd" />
          <path
             id="path915"
             d="m 242.61,310 v 11.18 H 24.81 c 1.05,-1.26 2.14,-2.51 3.26,-3.72 2.36,-2.54 4.92,-5 7.63,-7.46 z"
             inkscape:connector-curvature="0"
             style="fill:#68e1fd" />
          <path
             id="path917"
             d="m 124.15,245.66 c -2.46,-2.36 -5.4,-4.16 -8,-6.32 -0.92,-0.76 -1.89,-1.78 -1.71,-3 a 2.5,2.5 0 0 1 2,-1.87 7.52,7.52 0 0 1 2.91,0.18 l -5.6,-6.3 c -0.52,-0.59 -1.08,-1.4 -0.7,-2.09 0.38,-0.69 1.45,-0.65 2.19,-0.3 a 4.71,4.71 0 0 0 2.26,0.81 c -2,-2.81 -4.54,-5.1 -6.67,-7.77 -2.13,-2.67 -3.84,-6 -3.52,-9.36 a 2.18,2.18 0 0 1 0.49,-1.34 c 0.64,-0.64 1.72,-0.37 2.55,0 a 26,26 0 0 1 13.33,13.16 23.91,23.91 0 0 1 -1.1,-8.89 2.38,2.38 0 0 1 0.76,-1.88 c 1,-0.69 2.32,0.5 2.9,1.61 3.94,7.67 1.19,17 2.8,25.49 a 9.32,9.32 0 0 1 3.08,-6.13 44,44 0 0 1 -0.5,13.11 c 1.23,0.54 1.13,2.3 0.82,3.62 q -0.6,3 -1.5,6 c -2.2,-0.18 -2.24,-1.38 -2.93,-3.15 a 15.9,15.9 0 0 0 -3.86,-5.58 z"
             inkscape:connector-curvature="0"
             style="fill:#68e1fd" />
          <path
             id="path919"
             d="m 141.78,219.52 c 2.07,-2.35 4.55,-4.58 7.62,-5.22 0.93,1.79 0,4 -1.29,5.57 -1.29,1.57 -2.89,3 -3.54,4.86 a 19.71,19.71 0 0 1 10.35,-6.47 5.83,5.83 0 0 1 4.38,0.25 1.67,1.67 0 0 1 0.82,1 c 0.24,1.1 -1.16,1.76 -2.26,2 a 34.49,34.49 0 0 0 -19.17,13.15 24.13,24.13 0 0 1 15.21,-3.33 c 0.92,0.11 2,0.39 2.34,1.24 0.53,1.26 -0.9,2.46 -2.2,2.89 -5,1.66 -11.26,-0.11 -15.3,3.31 a 8.6,8.6 0 0 1 6.14,1.7 c 1.41,1.07 2.45,3.26 1.21,4.52 a 3.63,3.63 0 0 1 -3,0.68 c -2.89,-0.25 -6.45,-0.73 -8.11,1.65 -0.91,1.31 -0.84,3 -1.18,4.6 -0.27,1.27 -1.32,3.52 -2.7,2.28 -0.92,-0.83 -0.56,-3.73 -0.56,-4.83 a 46,46 0 0 1 11.22,-29.82 z"
             inkscape:connector-curvature="0"
             style="fill:#68e1fd" />
          <path
             id="path921"
             d="m 124.15,245.66 c -2.46,-2.36 -5.4,-4.16 -8,-6.32 -0.92,-0.76 -1.89,-1.78 -1.71,-3 a 2.5,2.5 0 0 1 2,-1.87 7.52,7.52 0 0 1 2.91,0.18 l -5.6,-6.3 c -0.52,-0.59 -1.08,-1.4 -0.7,-2.09 0.38,-0.69 1.45,-0.65 2.19,-0.3 a 4.71,4.71 0 0 0 2.26,0.81 c -2,-2.81 -4.54,-5.1 -6.67,-7.77 -2.13,-2.67 -3.84,-6 -3.52,-9.36 a 2.18,2.18 0 0 1 0.49,-1.34 c 0.64,-0.64 1.72,-0.37 2.55,0 a 26,26 0 0 1 13.33,13.16 23.91,23.91 0 0 1 -1.1,-8.89 2.38,2.38 0 0 1 0.76,-1.88 c 1,-0.69 2.32,0.5 2.9,1.61 3.94,7.67 1.19,17 2.8,25.49 a 9.32,9.32 0 0 1 3.08,-6.13 44,44 0 0 1 -0.5,13.11 c 1.23,0.54 1.13,2.3 0.82,3.62 q -0.6,3 -1.5,6 c -2.2,-0.18 -2.24,-1.38 -2.93,-3.15 a 15.9,15.9 0 0 0 -3.86,-5.58 z"
             inkscape:connector-curvature="0"
             style="fill:url(#linear-gradient-15)" />
          <path
             id="path923"
             d="m 141.78,219.52 c 2.07,-2.35 4.55,-4.58 7.62,-5.22 0.93,1.79 0,4 -1.29,5.57 -1.29,1.57 -2.89,3 -3.54,4.86 a 19.71,19.71 0 0 1 10.35,-6.47 5.83,5.83 0 0 1 4.38,0.25 1.67,1.67 0 0 1 0.82,1 c 0.24,1.1 -1.16,1.76 -2.26,2 a 34.49,34.49 0 0 0 -19.17,13.15 24.13,24.13 0 0 1 15.21,-3.33 c 0.92,0.11 2,0.39 2.34,1.24 0.53,1.26 -0.9,2.46 -2.2,2.89 -5,1.66 -11.26,-0.11 -15.3,3.31 a 8.6,8.6 0 0 1 6.14,1.7 c 1.41,1.07 2.45,3.26 1.21,4.52 a 3.63,3.63 0 0 1 -3,0.68 c -2.89,-0.25 -6.45,-0.73 -8.11,1.65 -0.91,1.31 -0.84,3 -1.18,4.6 -0.27,1.27 -1.32,3.52 -2.7,2.28 -0.92,-0.83 -0.56,-3.73 -0.56,-4.83 a 46,46 0 0 1 11.22,-29.82 z"
             inkscape:connector-curvature="0"
             style="fill:url(#linear-gradient-16)" />
          <path
             id="path925"
             d="m 143.88,309.92 -11.44,0.06 H 121.12 C 96.22,295.22 125,265.2 125,265.2 c 0,0 1.14,-4.68 -0.35,-7.63 a 4.18,4.18 0 0 0 -1.55,-1.73 c -3.67,-2.2 1.45,-3.07 1.45,-3.07 h 15.36 c 0,0 5.26,0.44 1.31,3.21 -3.95,2.77 -1.75,9.22 -1.75,9.22 30.73,34.17 4.41,44.72 4.41,44.72 z"
             inkscape:connector-curvature="0"
             style="fill:#ffffff" />
          <path
             id="path927"
             style="opacity:0.51000001;isolation:isolate;fill:url(#linear-gradient-17)"
             d="m 133.27,309.08 a 7.83,7.83 0 0 1 -0.83,0.9 H 121.12 C 96.22,295.22 125,265.2 125,265.2 c 0,0 1.14,-4.68 -0.35,-7.63 5,-0.38 7.41,6.07 6.74,10.17 -0.51,3.16 -1,6.33 -1.55,9.49 a 28.63,28.63 0 0 0 -0.5,9 c 0.62,4 2.9,7.53 4.39,11.29 1.49,3.76 2.03,8.36 -0.46,11.56 z"
             inkscape:connector-curvature="0" />
          <path
             id="path929"
             d="M 219.7,321.21 107.82,353 A 145.25,145.25 0 0 0 17.6,427.75 H 4.6 A 130.81,130.81 0 0 1 0,395.42 v -2.76 c 0.17,-25.9 8.16,-51.52 24.81,-71.41 z"
             inkscape:connector-curvature="0"
             style="fill:url(#linear-gradient-18)" />
          <rect
             id="rect931"
             style="opacity:0.61000001;isolation:isolate;fill:url(#linear-gradient-19)"
             height="88.300003"
             width="10.26"
             y="427.75"
             x="198.23" />
          <path
             id="path933"
             d="m 822.44,367.23 a 117,117 0 0 1 -12,45.94 132.11,132.11 0 0 1 -8.9,15.09 c -11.08,16.28 -25.57,30 -42,41.24 a 206.24,206.24 0 0 1 -37.92,20.22 l -26.51,-4.89 -50.81,-9.37 c -2.49,-0.46 -4.9,-0.75 -7.18,-1 -9.37,-1.06 -16.66,-1.58 -19.41,-11.09 -3.41,-11.71 0,-29.63 0,-41.91 0,-21.34 2.23,-46.75 20.81,-57.23 15.42,-8.68 35,-2.55 52.21,-6.57 a 9.9,9.9 0 0 0 4.54,-2 c 2,-1.85 2.31,-4.85 2.36,-7.57 0.43,-20.65 -6.47,-43.81 5.87,-60.37 9.44,-12.66 26.71,-16.15 42.43,-17.61 a 141.58,141.58 0 0 1 14.56,-0.63 q 3.54,0 7.07,0.3 c 16.29,1.26 31.81,6.49 40.09,19.9 4.43,7.16 6,15.66 7.48,23.95 0.67,3.83 1.34,7.69 2,11.55 2.2,13.82 4.2,27.97 5.31,42.05 z"
             inkscape:connector-curvature="0"
             style="fill:#3f3d56" />
          <path
             id="path935"
             d="m 822.44,367.23 a 117,117 0 0 1 -12,45.94 132.11,132.11 0 0 1 -8.9,15.09 c -6.09,2.59 -13.42,2.56 -20.21,2.66 a 227.38,227.38 0 0 0 -31.91,2.74 c -4.74,0.74 -9.68,1.73 -13.4,4.77 -4.91,4 -6.61,10.83 -6.88,17.18 -0.27,6.35 0.58,12.78 -0.5,19.05 a 12.2,12.2 0 0 1 -2.33,5.83 c -2.55,3.07 -7,3.62 -11,3.87 q -10.14,0.61 -20.29,0.5 a 278.13,278.13 0 0 1 -50.67,-5.32 c -2.89,-0.58 -6.26,-1.61 -7.18,-4.42 a 3.48,3.48 0 0 1 -0.14,-0.64 9.67,9.67 0 0 1 0.36,-3.93 l 9.15,-39.17 c 1.24,-5.32 2.52,-10.74 5.35,-15.41 5.64,-9.35 16.36,-14.13 26.41,-18.36 l 27.06,-11.41 c 7.4,-3.1 12.43,-3.5 11.77,-12.21 -1.45,-19.26 -5.49,-38 -5.49,-57.44 0,-5.58 0.26,-11.35 2.66,-16.37 2.4,-5.02 6.71,-8.84 11.14,-12.2 a 129.4,129.4 0 0 1 34.95,-18.51 q 3.54,0 7.07,0.3 c 16.29,1.26 31.81,6.49 40.09,19.9 4.43,7.16 6,15.66 7.48,23.95 0.67,3.83 1.34,7.69 2,11.55 1.45,8.77 2.78,17.63 3.85,26.51 0.62,5.16 1.12,10.32 1.56,15.55 z"
             inkscape:connector-curvature="0"
             style="fill:#25233a" />
          <path
             id="path937"
             d="m 822.44,367.23 a 117,117 0 0 1 -12,45.94 132.11,132.11 0 0 1 -8.9,15.09 c -6.09,2.59 -13.42,2.56 -20.21,2.66 a 227.38,227.38 0 0 0 -31.91,2.74 c -4.74,0.74 -9.68,1.73 -13.4,4.77 0,0 6.21,-34.32 31.54,-45.88 25.33,-11.56 53.32,-40.89 53.32,-40.89 0.62,5.18 1.12,10.34 1.56,15.57 z"
             inkscape:connector-curvature="0"
             style="fill:#3f3d56" />
          <path
             id="path939"
             d="m 266.53,296.31 c -0.14,-0.12 -0.27,-0.25 -0.4,-0.38 l 0.09,0.08 a 1.77,1.77 0 0 1 0.31,0.3 z"
             inkscape:connector-curvature="0"
             style="fill:url(#linear-gradient-20)" />
          <path
             id="path941"
             style="opacity:0.23999999;isolation:isolate;fill:#ffffff"
             d="m 255.45,280.4 c 0,0 1.45,16.09 5.17,20.18 a 48.09,48.09 0 0 1 -10.91,-16.53 c 0,0 14.69,-107 31.35,-126.1 l 5,2.65 z"
             inkscape:connector-curvature="0" />
          <path
             id="path943"
             style="opacity:0.23999999;isolation:isolate;fill:#ffffff"
             d="m 472.47,193.66 0.23,11 -14.36,36.15 -43.88,23 v 0 L 412,260.66 455.61,237 c 0,0 13.61,-28 16.86,-43.34 z"
             inkscape:connector-curvature="0" />
          <path
             id="path945"
             style="opacity:0.23999999;isolation:isolate;fill:#ffffff"
             d="m 387.82,280.31 -0.74,3.94 -49.92,-3.72 c -13.82,-1.19 -27.38,-10.64 -29.1,-24.45 l -17.23,-61 a 15.56,15.56 0 0 1 3,-14.69 c 0,0 16.09,75.5 22,82.26 5.91,6.76 17.17,10.81 17.17,10.81 z"
             inkscape:connector-curvature="0" />
          <path
             id="path947"
             style="opacity:0.23999999;isolation:isolate;fill:#ffffff"
             d="m 276.62,398.66 -26.85,84.8 -4,-1.72 22.91,-90.2 c 0,0 -8.92,-24.54 -15.48,-42.45 -6.3,-17.17 2.27,-51.19 3,-53.93 l 3.43,3.55 c 0,0 -9,40.26 2.58,59.4 11.58,19.14 14.41,40.55 14.41,40.55 z"
             inkscape:connector-curvature="0" />
          <path
             id="path949"
             style="opacity:0.23999999;isolation:isolate;fill:#ffffff"
             d="m 487.25,301 v 0 a 39.66,39.66 0 0 1 -5.89,-2 10.2,10.2 0 0 1 -5.36,-13.4 v -0.15 c 2.83,-6.4 2.91,-15.66 2.65,-24.2 -0.59,-19.64 -5.56,-40.87 -5.93,-49.75 -0.24,-5.65 0.67,-13.66 2.33,-21.66 l 3.14,-13.29 c 0,0 -2.88,21.56 -3.62,27.47 -0.74,5.91 6,39.56 8.51,44.44 2.51,4.88 -1.89,33.6 -1.3,40.42 0.59,6.82 5.47,12.12 5.47,12.12 z"
             inkscape:connector-curvature="0" />
          <path
             id="path951"
             style="opacity:0.23999999;isolation:isolate;fill:#ffffff"
             d="m 542.94,479.53 -4.09,2 c -0.47,-2.35 -9.22,-45.6 -21.55,-76.94 -9.21,-23.37 -13.65,-71 -15.38,-95.32 l 5.07,1 c 0,0 7.52,62.1 15.78,85.06 8.26,22.96 20.17,84.2 20.17,84.2 z"
             inkscape:connector-curvature="0" />
          <path
             id="path953"
             style="opacity:0.23999999;isolation:isolate;fill:#ffffff"
             d="m 540.46,257.66 -13.26,42.71 -3,-0.57 -0.59,-0.2 12.45,-40 c 0,0 -16.3,-44.94 -19.06,-58.78 a 38.77,38.77 0 0 1 -0.13,-13.88 12,12 0 0 1 9.41,-9.77 c 0,0 -9,6.27 -6.26,20.13 3.58,17.81 20.44,60.36 20.44,60.36 z"
             inkscape:connector-curvature="0" />
          <polygon
             id="polygon955"
             style="opacity:0.23999999;isolation:isolate;fill:#ffffff"
             points="489.42,231.91 485.44,235.94 506.46,164.71 506.54,157.58 509.21,160.31 509.21,160.32 510.15,166.15 " />
          <path
             id="path957"
             d="m 248.82,480.06 -5.75,10.46 5.78,3.31 2.15,-1.72 9.32,8.58 c 0,0 3.33,2.3 11.48,2.3 8.15,0 9.76,-1.17 9.76,-1.17 0,0 0,-12 -10,-11.45 -10,0.55 -10.69,-5.14 -10.69,-5.14 z"
             inkscape:connector-curvature="0"
             style="fill:#68e1fd" />
          <path
             id="path959"
             d="m 312.44,486.34 -0.94,15.46 h 7 V 496 l 9.5,5.8 23.49,-0.06 c 0,0 0,-16 -10.56,-15.16 -10.56,0.84 -14.82,0 -14.82,0 l -1.67,-2.23 z"
             inkscape:connector-curvature="0"
             style="fill:#68e1fd" />
          <path
             id="path961"
             d="m 554.06,479.29 1,15.45 h -7 v -5.84 l -9.43,5.86 -23.49,0.06 c 0,0 0,-16 10.49,-15.21 10.49,0.79 14.82,0 14.82,0 l 1.65,-2.24 z"
             inkscape:connector-curvature="0"
             style="fill:#68e1fd" />
          <path
             id="path963"
             d="m 477.49,479.48 1,15.44 h -7 v -5.84 L 462,495 l -23.49,0.06 c 0,0 0,-16 10.49,-15.21 10.49,0.79 14.82,0 14.82,0 l 1.65,-2.24 z"
             inkscape:connector-curvature="0"
             style="fill:#68e1fd" />
          <path
             id="path965"
             d="m 248.82,480.06 -5.75,10.46 5.78,3.31 2.15,-1.72 9.32,8.58 c 0,0 3.33,2.3 11.48,2.3 8.15,0 9.76,-1.17 9.76,-1.17 0,0 0,-12 -10,-11.45 -10,0.55 -10.69,-5.14 -10.69,-5.14 z"
             inkscape:connector-curvature="0"
             style="fill:url(#linear-gradient-21)" />
          <path
             id="path967"
             d="m 312.44,486.34 -0.94,15.46 h 7 V 496 l 9.5,5.8 23.49,-0.06 c 0,0 0,-16 -10.56,-15.16 -10.56,0.84 -14.82,0 -14.82,0 l -1.67,-2.23 z"
             inkscape:connector-curvature="0"
             style="fill:url(#linear-gradient-22)" />
          <path
             id="path969"
             d="m 554.06,479.29 1,15.45 h -7 v -5.84 l -9.43,5.86 -23.49,0.06 c 0,0 0,-16 10.49,-15.21 10.49,0.79 14.82,0 14.82,0 l 1.65,-2.24 z"
             inkscape:connector-curvature="0"
             style="fill:url(#linear-gradient-23)" />
          <path
             id="path971"
             d="m 477.49,479.48 1,15.44 h -7 v -5.84 L 462,495 l -23.49,0.06 c 0,0 0,-16 10.49,-15.21 10.49,0.79 14.82,0 14.82,0 l 1.65,-2.24 z"
             inkscape:connector-curvature="0"
             style="fill:url(#linear-gradient-24)" />
        </g>
        <g
           id="g1102">
          <text
             inkscape:transform-center-y="0.19569483"
             inkscape:transform-center-x="-0.066011442"
             transform="matrix(0.25898691,-0.72208375,1.4007408,-0.04421906,0,0)"
             id="text1098"
             y="422.76715"
             x="-333.13138"
             style="font-style:normal;font-weight:normal;font-size:11.4655695px;line-height:1.25;font-family:sans-serif;letter-spacing:0px;word-spacing:0px;fill:#000000;fill-opacity:1;stroke:none;stroke-width:0.28663924"
             xml:space="preserve"><tspan
               rotate="0 0 0 0 0 0"
               style="font-style:normal;font-variant:normal;font-weight:normal;font-stretch:normal;font-family:'Times New Roman';-inkscape-font-specification:'Times New Roman, ';stroke-width:0.28663924"
               y="422.76715"
               x="-333.13138"
               id="tspan1096"
               sodipodi:role="line">BIBLE</tspan></text>
        </g>
      </g>
    </g>
  </g>
</svg>
